<svg width="212" height="217" viewBox="0 0 212 217" fill="none" xmlns="http://www.w3.org/2000/svg">
<g clip-path="url(#clip0_616_291)">
<path d="M5.79448 73.1832C31.5738 68.5121 58.2515 69.742 83.5891 76.3255C108.927 82.909 132.453 94.4414 152.746 110.556C164.28 119.709 174.376 130.242 183.42 141.846C184.348 143.03 186.279 144.102 187.793 144.022C189.044 143.945 189.72 142.91 188.864 141.779C172.385 119.606 150.288 101.7 125.979 88.7522C101.83 75.8979 74.8832 67.9673 47.584 66.0148C32.2352 64.9175 16.7523 65.6999 1.63001 68.4808C0.071147 68.7709 0.723125 70.3311 1.42761 71.1693C2.34693 72.2654 4.28642 73.4503 5.80647 73.1962L5.79448 73.1832Z" fill="white"/>
<path d="M173.993 112.128C178.644 118.472 183.116 124.934 187.383 131.537C189.469 134.775 191.516 138.049 193.512 141.345C194.545 143.057 195.565 144.781 196.561 146.504C197.263 147.729 197.985 148.768 197.53 150.224L201.651 150.156C189.166 142.053 175.527 135.716 161.203 131.65C160.055 131.319 158.55 131.511 158.855 133.008C159.159 134.505 161.273 135.697 162.593 136.109C175.735 140.093 188.215 145.724 199.752 153.167C200.812 153.844 203.343 154.889 203.873 153.099C204.776 150.051 201.84 146.518 200.397 144.104C198.26 140.553 196.086 137.012 193.847 133.532C189.288 126.43 184.51 119.482 179.502 112.676C178.54 111.378 177.003 110.134 175.296 110.031C174.013 109.97 173.067 110.895 173.968 112.128L173.993 112.128Z" fill="white"/>
</g>
<defs>
<clipPath id="clip0_616_291">
<rect width="200" height="102.487" fill="white" transform="translate(75.1792) rotate(47.1845)"/>
</clipPath>
</defs>
</svg>
