<svg width="38" height="38" viewBox="0 0 38 38" fill="none" xmlns="http://www.w3.org/2000/svg">
<path fill-rule="evenodd" clip-rule="evenodd" d="M0.770752 18.9997C0.770752 8.93198 8.93223 0.770508 18.9999 0.770508C29.0676 0.770508 37.2291 8.93198 37.2291 18.9997C37.2291 29.0674 29.0676 37.2288 18.9999 37.2288C8.93223 37.2288 0.770752 29.0674 0.770752 18.9997ZM18.9999 7.02051C19.8629 7.02051 20.5624 7.72006 20.5624 8.58301V18.9997C20.5624 19.8626 19.8629 20.5622 18.9999 20.5622C18.137 20.5622 17.4374 19.8626 17.4374 18.9997V8.58301C17.4374 7.72006 18.137 7.02051 18.9999 7.02051ZM14.8333 10.8376C14.8333 10.4569 14.4386 10.2072 14.1079 10.3957C11.1192 12.0986 9.10408 15.3138 9.10408 18.9997C9.10408 24.465 13.5346 28.8955 18.9999 28.8955C24.4652 28.8955 28.8957 24.465 28.8957 18.9997C28.8957 15.3138 26.8806 12.0986 23.892 10.3957C23.5612 10.2072 23.1666 10.4569 23.1666 10.8376V13.4084C23.1666 13.5687 23.2412 13.7191 23.3637 13.8224C24.8357 15.0645 25.7707 16.9229 25.7707 18.9997C25.7707 22.7391 22.7393 25.7705 18.9999 25.7705C15.2605 25.7705 12.2291 22.7391 12.2291 18.9997C12.2291 16.9229 13.1641 15.0645 14.6361 13.8224C14.7586 13.7191 14.8333 13.5687 14.8333 13.4084V10.8376Z" fill="#C0B9DE"/>
</svg>
