<svg width="40" height="40" viewBox="0 0 40 40" fill="none" xmlns="http://www.w3.org/2000/svg">
<path d="M22.1646 1.46284C20.9156 0.81101 19.2001 0.80122 17.9425 1.45074C12.5703 4.2252 7.70225 7.40401 3.43982 10.9261C2.87143 11.3958 2.49529 12.0531 2.50173 12.8045C2.50815 13.5533 2.89283 14.2033 3.45935 14.6665C7.68747 18.1237 12.561 21.3063 17.8355 24.0591C19.0845 24.711 20.8 24.7207 22.0576 24.0712C27.4298 21.2968 32.2979 18.118 36.5603 14.5959C37.1287 14.1262 37.5048 13.4688 37.4984 12.7175C37.492 11.9687 37.1073 11.3186 36.5408 10.8554C32.3126 7.39826 27.4391 4.21571 22.1646 1.46284Z" fill="#C0B9DE"/>
<path d="M38.6626 22.6077C39.3946 22.1507 39.6175 21.1868 39.1605 20.4548C38.7035 19.7228 37.7397 19.4999 37.0077 19.9569L24.2843 27.9004C23.1509 28.608 21.611 29.0025 19.9997 29.0026C18.3883 29.0027 16.8484 28.6084 15.7147 27.9009L3.13069 20.0472C2.39862 19.5903 1.43478 19.8134 0.977897 20.5455C0.521013 21.2776 0.744098 22.2414 1.47617 22.6983L14.0602 30.5519C15.787 31.6296 17.9292 32.1277 19.9999 32.1276C22.0706 32.1275 24.2127 31.6291 25.9392 30.5512L38.6626 22.6077Z" fill="#C0B9DE"/>
<path d="M38.6628 30.4299C39.3947 29.9728 39.6175 29.0089 39.1604 28.277C38.7034 27.545 37.7394 27.3222 37.0075 27.7793L25.9889 34.6603C24.3788 35.6658 22.225 36.2093 19.9996 36.2094C17.7742 36.2096 15.6202 35.6663 14.0097 34.6609L3.13085 27.8697C2.39884 27.4127 1.43497 27.6357 0.977997 28.3677C0.521025 29.0997 0.743993 30.0636 1.47601 30.5205L12.3549 37.3118C14.5586 38.6875 17.315 39.3346 19.9998 39.3344C22.6846 39.3343 25.4408 38.6869 27.6442 37.3109L38.6628 30.4299Z" fill="#C0B9DE"/>
</svg>
