<svg width="42" height="42" viewBox="0 0 42 42" fill="none" xmlns="http://www.w3.org/2000/svg">
<path d="M4.92806 13.3828C2.48566 14.0382 0.6875 16.2674 0.6875 18.9167V25.1667C0.6875 28.3308 3.25254 30.8958 6.41667 30.8958H11.625C12.4879 30.8958 13.1875 30.1963 13.1875 29.3333V14.75C13.1875 13.8871 12.4879 13.1875 11.625 13.1875H8.11422C9.00832 8.04172 14.2471 3.8125 21 3.8125C27.7529 3.8125 32.9917 8.04172 33.8858 13.1875H30.375C29.5121 13.1875 28.8125 13.8871 28.8125 14.75V29.3333C28.8125 30.1963 29.5121 30.8958 30.375 30.8958H33.8396C33.1342 33.882 30.4516 36.1042 27.25 36.1042H24.8638C24.2457 34.5772 22.7486 33.5 21 33.5C18.6988 33.5 16.8333 35.3655 16.8333 37.6667C16.8333 39.9679 18.6988 41.8333 21 41.8333C22.7486 41.8333 24.2457 40.7562 24.8638 39.2292H27.25C32.2495 39.2292 36.3831 35.5216 37.0514 30.706C39.5042 30.0577 41.3125 27.8233 41.3125 25.1667V18.9167C41.3125 16.2674 39.5144 14.0382 37.0719 13.3828C36.2772 6.08248 29.1796 0.6875 21 0.6875C12.8204 0.6875 5.72276 6.08248 4.92806 13.3828Z" fill="#C0B9DE"/>
</svg>
