<svg width="23" height="23" viewBox="0 0 23 23" fill="none" xmlns="http://www.w3.org/2000/svg">
<rect width="23" height="23" rx="11.5" fill="white"/>
<g clip-path="url(#clip0_610_12)">
<path d="M3.132 16.16C3.04937 16.0502 3.00405 15.9168 3.00267 15.7793V15.1427C3.00267 15.1427 3.00267 14.762 3.378 14.934C3.378 14.934 7.99067 17.024 8.73333 17.3513C9.44455 17.6819 10.2211 17.848 11.0053 17.8373C11.786 17.8385 12.5579 17.6728 13.2693 17.3513L18.6273 14.934C19 14.762 19 15.1427 19 15.1427V15.7793C18.9953 15.9174 18.9493 16.0509 18.868 16.1627C18.7413 16.3347 18.5247 16.522 17.9273 16.802C17.452 17.0267 13.774 18.6807 13.264 18.9153C12.5532 19.2414 11.7794 19.4073 10.9973 19.4013C10.1113 19.4013 9.23815 19.1894 8.45067 18.7833C7.494 18.35 4.55133 17.0293 4.07267 16.802C3.47267 16.5167 3.304 16.366 3.132 16.16ZM4.07267 12.178L8.73067 10.0647C9.18911 9.85617 9.67485 9.71386 10.1733 9.64201V13.4467C10.1733 13.7107 10.554 13.9113 10.9973 13.9113C11.4407 13.9113 11.758 13.7027 11.758 13.4467V9.65268C12.2767 9.72268 12.7847 9.86135 13.2667 10.0647L17.9247 12.178C18.3107 12.36 18.9973 12.6853 18.9973 13.2033C18.9973 13.7213 18.3233 14.0273 17.9247 14.2233L13.2667 16.3367C12.5554 16.6585 11.7834 16.8242 11.0027 16.8227C10.2184 16.8334 9.44189 16.6673 8.73067 16.3367L4.07267 14.2233C3.674 14.028 3 13.716 3 13.2007C3 12.6853 3.68667 12.358 4.07267 12.178ZM5.27733 13.676C5.79067 13.94 6.39933 13.94 6.91267 13.676C7.36733 13.412 7.37 12.992 6.91267 12.73C6.65937 12.6012 6.37919 12.534 6.095 12.534C5.81081 12.534 5.53063 12.6012 5.27733 12.73C4.824 12.9913 4.83333 13.41 5.27733 13.676ZM11 9.06335C10.5583 9.06348 10.1265 8.93263 9.75911 8.68733C9.39177 8.44204 9.10542 8.09333 8.93626 7.68529C8.7671 7.27725 8.72274 6.82822 8.80878 6.39497C8.89483 5.96172 9.10741 5.56371 9.41966 5.25128C9.7319 4.93885 10.1298 4.72603 10.563 4.63972C10.9962 4.55342 11.4452 4.59751 11.8534 4.76643C12.2615 4.93534 12.6104 5.22149 12.8559 5.58869C13.1014 5.95588 13.2325 6.38764 13.2327 6.82935V6.83135C13.2327 8.06401 12.2327 9.06335 11 9.06335Z" fill="#362E3C"/>
</g>
<defs>
<clipPath id="clip0_610_12">
<rect width="16" height="16" fill="white" transform="translate(3 4)"/>
</clipPath>
</defs>
</svg>
